<svg width="174" height="51" viewBox="0 0 174 51" fill="none" xmlns="http://www.w3.org/2000/svg">
<path d="M13.1698 39.8646C6.57565 39.8646 2.18571 37.0993 0 31.5688L9.94683 26.2795C10.6877 28.1354 11.9844 29.0633 13.8366 29.0633C16.2817 29.0633 17.7079 28.0055 18.1154 25.8897L22.6721 0H33.7859L29.1737 26.1681C27.5436 35.2991 22.209 39.8646 13.1698 39.8646Z" fill="current"/>
<path d="M64.0909 0L62.3127 10.1332H48.1426L47.4202 14.3646H60.201L58.4228 24.3865H45.642L44.864 28.7293H59.3119L57.5337 38.9738H31.9721L38.807 0H64.0909Z" fill="current"/>
<path d="M79.9302 0L74.9845 28.1725H87.7654L85.876 38.9738H61.9814L68.8164 0H79.9302Z" fill="current"/>
<path d="M89.7298 24.3865C90.3966 20.4891 92.2304 17.1856 95.2311 14.476C98.2689 11.7293 102.066 10.3559 106.623 10.3559C111.068 10.3559 114.476 11.9334 116.847 15.0884C119.255 18.2435 120.107 21.7882 119.404 25.7227C118.663 29.6201 116.81 32.9236 113.847 35.6332C110.883 38.3799 107.123 39.7533 102.566 39.7533C98.0096 39.7533 94.5458 38.1943 92.1748 35.0764C89.8409 31.9214 89.0259 28.3581 89.7298 24.3865ZM100.343 28.6179C101.047 29.5087 102.103 29.9541 103.511 29.9541C104.882 29.9541 106.067 29.5087 107.067 28.6179C108.068 27.69 108.716 26.5022 109.012 25.0546C109.272 23.607 109.049 22.4378 108.345 21.5469C107.642 20.619 106.604 20.155 105.234 20.155C103.863 20.155 102.659 20.619 101.622 21.5469C100.621 22.4007 99.973 23.5699 99.6766 25.0546C99.4173 26.5022 99.6396 27.69 100.343 28.6179Z" fill="current"/>
<path d="M143.977 14.309L144.533 11.1354H154.813L150.09 38.1386C149.312 42.4814 147.367 45.7107 144.255 47.8264C141.143 49.9421 137.476 51 133.252 51C130.103 51 127.362 50.3876 125.028 49.1627C122.731 47.9749 121.12 46.3231 120.194 44.2074L129.14 39.3635C130.178 41.1823 131.9 42.0917 134.308 42.0917C135.716 42.0917 136.92 41.7576 137.92 41.0895C138.92 40.4214 139.55 39.4378 139.81 38.1386L140.198 35.8559C138.235 37.7118 135.772 38.6397 132.808 38.6397C130.178 38.6397 127.955 37.9531 126.14 36.5797C124.324 35.2063 123.083 33.4432 122.416 31.2904C121.75 29.1376 121.62 26.8548 122.027 24.4421C122.509 20.6932 124.084 17.4083 126.751 14.5873C129.344 11.7664 132.66 10.3559 136.698 10.3559C139.995 10.3559 142.421 11.6736 143.977 14.309ZM136.42 29.5087C137.865 29.5087 139.106 29.0819 140.143 28.2282C141.18 27.3373 141.847 26.1867 142.143 24.7762L142.255 24.3308C142.44 22.8832 142.162 21.714 141.421 20.8231C140.68 19.9323 139.587 19.4869 138.142 19.4869C136.661 19.4869 135.383 19.9509 134.308 20.8788C133.234 21.8068 132.567 23.0131 132.308 24.4978C132.048 25.9825 132.289 27.1889 133.03 28.1168C133.808 29.0448 134.938 29.5087 136.42 29.5087Z" fill="current"/>
<path d="M167.776 24.4978H158.885L159.274 11.1354L161.219 0H174L172.055 11.1354L167.776 24.4978ZM160.663 39.809C158.885 39.809 157.496 39.1779 156.496 37.9159C155.496 36.6168 155.144 35.0764 155.44 33.2948C155.699 31.5131 156.551 30.0284 157.996 28.8406C159.441 27.6157 161.071 27.0033 162.886 27.0033C164.664 27.0033 166.054 27.6528 167.054 28.952C168.054 30.214 168.406 31.7358 168.11 33.5175C167.813 35.3362 166.961 36.8395 165.554 38.0273C164.183 39.2151 162.553 39.809 160.663 39.809Z" fill="current"/>
</svg>
