<svg width="16" height="16" viewBox="0 0 16 16" fill="none" xmlns="http://www.w3.org/2000/svg">
<rect width="16" height="16" rx="4" fill="white"/>
<path fill-rule="evenodd" clip-rule="evenodd" d="M10.9027 9.67533L8.276 10.856L7.84533 11.4707C7.824 11.5013 7.78267 11.5087 7.752 11.4873L5.134 9.654C5.10333 9.63267 5.096 9.59067 5.11733 9.56067L5.55133 8.948L5.76267 6.076C5.76667 6.024 5.82533 5.996 5.868 6.026L10.914 9.55933C10.9567 9.58933 10.95 9.654 10.9027 9.67533ZM7.18 11.8673L6.78133 12.4373C6.76133 12.4607 6.728 12.4693 6.7 12.4693L3.57467 12.4707C3.53267 12.456 3.516 12.4053 3.54133 12.3687L4.97533 10.324C4.99667 10.294 5.03867 10.2867 5.06867 10.3073L7.16333 11.774C7.194 11.7953 7.20133 11.8373 7.18 11.8673ZM9.94333 0L6.152 5.41467C6.12333 5.456 6.13333 5.51267 6.174 5.54133L11.264 9.10533C11.3053 9.13467 11.3627 9.12467 11.3913 9.08333L15.9233 2.61C15.9733 2.83867 16 3.076 16 3.31867V12.6813C16 14.5147 14.514 16 12.6813 16H3.31867C1.48533 16 0 14.514 0 12.6813V3.31867C0 1.48533 1.486 0 3.31867 0H9.94333Z" fill="url(#paint0_linear_1621_4803)"/>
<defs>
<linearGradient id="paint0_linear_1621_4803" x1="10.9718" y1="8.29472" x2="80.1179" y2="-6.98943" gradientUnits="userSpaceOnUse">
<stop stop-color="#00B1E2"/>
<stop offset="1" stop-color="#00D4B7"/>
</linearGradient>
</defs>
</svg>
